# xmcd
#
# Track frame offsets:
#	150
#	14363
#	25457
#	41314
#	56152
#	68753
#	79005
#	96228
#	111970
#	126013
#	140973
#	153176
#	161488
#
# Disc length: 2295 seconds
#
# Revision: 1
# Processed by: cddbd v1.5.2PL0 Copyright (c) Steve Scherf et al.
# Submitted via: audiograbber 1.83.01
#
DISCID=ab08f50d
DTITLE=Billie Jo Spears - Queen Of The Silver Dollar
DYEAR=1992
DGENRE=Country
TTITLE0=Crying Time
TTITLE1=Tennessee Waltz
TTITLE2=Queen Of The Silver Dollar
TTITLE3=Crystal Chandeliers
TTITLE4=57 Chevrolets
TTITLE5=Silver Threads and Golden Needle
TTITLE6=For The Good Times
TTITLE7=Blanket On The Ground
TTITLE8=Blue Bayou
TTITLE9=It's A Heartache
TTITLE10=What I've Got In Mind
TTITLE11=Blue Blue Day
TTITLE12=All I Have To Do Is Dream
EXTD=
EXTT0=
EXTT1=
EXTT2=
EXTT3=
EXTT4=
EXTT5=
EXTT6=
EXTT7=
EXTT8=
EXTT9=
EXTT10=
EXTT11=
EXTT12=
PLAYORDER=
